<?xml version="1.0" encoding="utf-8"?>
<!-- Generator: Adobe Illustrator 16.0.0, SVG Export Plug-In . SVG Version: 6.00 Build 0)  -->
<!DOCTYPE svg PUBLIC "-//W3C//DTD SVG 1.1//EN" "http://www.w3.org/Graphics/SVG/1.1/DTD/svg11.dtd">
<svg version="1.1" id="Layer_1" xmlns="http://www.w3.org/2000/svg" xmlns:xlink="http://www.w3.org/1999/xlink" x="0px" y="0px"
	 width="841.89px" height="841.89px" viewBox="0 174.33 841.89 841.89" enable-background="new 0 174.33 841.89 841.89"
	 xml:space="preserve">
<g id="_x36_ea24e2a-3df1-4c12-a30d-2421fdfb717e" transform="matrix(0.9553070773056627,0,0,0.9553070773056627,-0.00007920229712254923,-15.854276896345262)">
	<path fill="#D1793F" d="M283.88,889.153c43.871,25.507,93.726,38.914,144.474,38.85c114.281,0,213.022-66.499,259.656-162.926
		c-53.574,29.422-114.015,55.511-178.348,76.525C432.127,866.938,355.245,883.039,283.88,889.153z M207.484,801.117
		c82.803,0,177.302-16.588,273.278-47.947c96.445-31.524,176.017-71.539,235.861-112.996v-0.45
		c0-159.235-129.061-288.287-288.269-288.287c-159.216,0-288.268,129.061-288.268,288.287
		c-0.086,57.401,17.037,113.51,49.159,161.081C195.22,800.99,201.279,801.117,207.484,801.117L207.484,801.117z"/>
	<path fill="#0DAD4A" d="M877.264,497.087c-0.956-2.847-2.075-5.636-3.351-8.354c-0.571-2.933-1.314-5.829-2.221-8.675
		c-20.848-63.847-119.45-93.627-250.797-86.026c15.824,12.408,30.414,26.313,43.568,41.522
		c93.305-1.377,166.598,17.699,201.959,55.667c-11.364,95.546-166.744,215.748-378.168,284.846
		c-211.405,69.078-407.783,63.81-473.392-6.601c5.315-44.688,42.109-94.765,101.448-142.501c0.826-20.444,3.654-40.355,8.225-59.596
		C33.8,633.455-14.79,706.004,4.001,763.572c0.955,2.872,2.103,5.626,3.369,8.335c0.579,2.937,1.294,5.847,2.203,8.712
		c32.47,99.327,253.009,116.365,492.615,38.078C741.804,740.411,909.715,596.414,877.264,497.087z"/>
</g>
</svg>
