<?xml version="1.0" standalone="no"?>
<!DOCTYPE svg PUBLIC "-//W3C//DTD SVG 20010904//EN"
 "http://www.w3.org/TR/2001/REC-SVG-20010904/DTD/svg10.dtd">
<svg version="1.0" xmlns="http://www.w3.org/2000/svg"
 width="700.000000pt" height="700.000000pt" viewBox="0 0 700.000000 700.000000"
 preserveAspectRatio="xMidYMid meet">
<metadata>
Created by potrace 1.11, written by Peter Selinger 2001-2013
</metadata>
<g transform="translate(0.000000,700.000000) scale(0.100000,-0.100000)"
fill="#000000" stroke="none">
<path d="M3219 5785 c-2 -2 -29 -6 -60 -8 -331 -30 -724 -170 -1006 -358 -375
-249 -671 -597 -843 -990 -56 -125 -114 -297 -135 -399 -2 -8 -8 -35 -14 -60
-49 -218 -60 -561 -25 -800 45 -306 155 -606 328 -889 l39 -64 271 7 c149 4
285 8 301 10 17 2 63 7 104 11 85 7 77 6 261 31 19 3 46 6 60 9 14 2 59 8 100
15 41 6 95 15 120 20 25 5 59 11 75 14 43 6 343 73 439 97 45 12 88 22 97 24
9 2 49 13 89 25 40 12 82 23 92 25 23 5 247 75 373 117 231 77 547 198 695
265 36 17 103 47 150 68 158 71 452 224 589 307 34 21 65 38 67 38 4 0 130 80
257 163 l48 32 -5 125 c-30 712 -412 1385 -1012 1782 -82 55 -259 158 -269
158 -2 0 -36 15 -77 34 -166 77 -415 149 -593 171 -27 4 -61 9 -75 12 -28 6
-436 14 -441 8z"/>
<path d="M4958 5452 c-14 -6 -7 -15 35 -50 61 -51 277 -263 277 -272 0 -4 44
-7 98 -8 156 -2 341 -12 422 -22 41 -5 100 -12 130 -15 282 -30 660 -163 831
-292 123 -93 130 -101 124 -147 -13 -107 -65 -242 -149 -390 -108 -190 -320
-429 -566 -637 -41 -35 -77 -66 -80 -69 -25 -26 -270 -200 -410 -292 -419
-274 -875 -502 -1409 -705 -134 -51 -479 -168 -561 -192 -19 -5 -89 -25 -155
-44 -66 -19 -151 -42 -190 -52 -38 -9 -83 -21 -100 -26 -70 -21 -508 -111
-610 -125 -33 -4 -62 -8 -65 -9 -11 -3 -88 -15 -125 -20 -40 -6 -80 -11 -165
-20 -25 -3 -63 -7 -85 -10 -35 -4 -98 -9 -270 -21 -69 -5 -487 -4 -558 1 -105
7 -192 15 -217 20 -14 2 -47 7 -75 10 -27 3 -59 7 -70 9 -11 2 -36 6 -55 10
-334 60 -617 181 -795 339 l-49 44 18 84 c49 234 224 515 478 769 95 95 267
250 300 271 6 4 12 31 14 60 8 106 25 235 40 309 9 41 17 83 19 93 2 9 2 17 0
17 -2 0 -57 -41 -122 -92 -441 -342 -730 -702 -829 -1033 -23 -78 -27 -108
-27 -220 -1 -123 1 -136 37 -245 48 -148 63 -182 110 -255 121 -188 360 -336
694 -429 48 -14 101 -27 117 -31 84 -16 194 -35 234 -40 25 -3 53 -7 61 -10
100 -27 811 -27 1035 0 91 10 144 16 175 19 58 6 215 29 340 51 146 26 170 31
240 45 30 6 64 13 75 15 529 108 1203 331 1750 578 154 70 552 273 615 315 14
9 41 25 60 35 66 36 305 191 410 266 592 422 950 859 1026 1252 29 151 7 298
-78 517 -91 235 -352 429 -721 536 -139 40 -338 79 -472 91 -38 4 -81 9 -95
12 -38 8 -643 12 -662 5z"/>
<path d="M5255 2396 c-286 -144 -434 -211 -715 -321 -230 -90 -558 -205 -690
-241 -8 -2 -71 -20 -140 -40 -121 -34 -140 -39 -177 -48 -10 -2 -72 -18 -138
-35 -105 -26 -259 -61 -335 -75 -14 -3 -50 -10 -80 -16 -30 -6 -68 -13 -85
-15 -16 -3 -41 -7 -55 -10 -14 -3 -41 -7 -60 -10 -19 -3 -60 -10 -90 -15 -30
-5 -80 -12 -110 -15 -30 -4 -66 -8 -80 -10 -31 -4 -118 -14 -184 -21 -28 -2
-52 -6 -54 -8 -5 -6 210 -109 303 -146 166 -66 412 -128 585 -147 41 -4 156
-8 255 -8 158 0 221 4 325 19 14 2 43 6 66 10 72 10 206 44 314 80 561 185
1008 554 1300 1074 28 51 50 95 49 96 -2 2 -94 -42 -204 -98z"/>
</g>
</svg>
