<svg data-v-423bf9ae="" xmlns="http://www.w3.org/2000/svg" viewBox="0 0 91.70954501707493 60" class="icon"><!----><!----><!----><!----><g data-v-423bf9ae="" id="6ea24e2a-3df1-4c12-a30d-2421fdfb717e" transform="matrix(0.9553070773056627,0,0,0.9553070773056627,-0.00007920229712254923,-15.854276896345262)" stroke="none" fill="#D1793F"><path d="M30.924 75.171a31.232 31.232 0 0 0 15.738 4.232c12.449 0 23.205-7.244 28.285-17.748-5.836 3.205-12.42 6.047-19.428 8.336-8.446 2.76-16.821 4.514-24.595 5.18zM22.602 65.581c9.02 0 19.314-1.807 29.769-5.223 10.506-3.434 19.174-7.793 25.693-12.309V48c0-17.346-14.059-31.404-31.402-31.404C29.318 16.596 15.26 30.655 15.26 48a31.272 31.272 0 0 0 5.355 17.547c.651.02 1.311.034 1.987.034z"></path><path d="M95.563 32.462a8.55 8.55 0 0 0-.365-.91 8.392 8.392 0 0 0-.242-.945c-2.271-6.955-13.012-10.199-27.32-9.371a34.069 34.069 0 0 1 4.746 4.523c10.164-.15 18.148 1.928 22 6.064-1.238 10.408-18.164 23.502-41.195 31.029-23.029 7.525-44.421 6.951-51.568-.719.579-4.868 4.587-10.323 11.051-15.523.09-2.227.398-4.396.896-6.492C3.682 47.317-1.611 55.22.436 61.491c.104.313.229.613.367.908.063.32.141.637.24.949 3.537 10.82 27.561 12.676 53.662 4.148 26.102-8.528 44.393-24.214 40.858-35.034z"></path></g><!----></svg>
