        <svg xmlns="http://www.w3.org/2000/svg" viewBox="0 0 300 300" class="icon"><g id="eb0090f1-6842-4149-b39d-6f2342150dd1" fill="#8ae9e9" stroke="none" transform="matrix(3.005391307537992,0,0,3.005391307537992,11.749322855608675,11.000660624861368)"><path d="M71.5 18.9c.3-.7.5-1.5.5-2.3 0-3.2-2.6-5.8-5.8-5.8s-5.8 2.6-5.8 5.8 2.6 5.8 5.8 5.8c1 0 2-.3 2.8-.7 6.3 6.2 9.9 14.6 9.9 23.5C78.9 63.3 64.2 78 46 78S13.2 63.3 13.2 45.1c0-6.9 2.2-13.6 6.2-19.2.6.2 1.3.4 2.1.4 3.2 0 5.8-2.6 5.8-5.8s-2.6-5.8-5.8-5.8-5.8 2.6-5.8 5.8c0 1.1.3 2.1.8 3-4.6 6.2-7.1 13.8-7.1 21.6 0 20.2 16.4 36.6 36.6 36.6s36.6-16.4 36.6-36.6c.1-9.9-4-19.3-11.1-26.2z"></path><path d="M27 35c0 1.7.7 3.2 1.9 4.3-.6 1.9-1 3.8-1 5.8 0 10 8.1 18.1 18.1 18.1s18.1-8.1 18.1-18.1c0-2.8-.6-5.5-1.9-8 .7-1 1.1-2.2 1.1-3.4 0-3.2-2.6-5.8-5.8-5.8s-5.8 2.6-5.8 5.8c0 3.2 2.6 5.8 5.8 5.8.5 0 1-.1 1.5-.2.8 1.8 1.2 3.8 1.2 5.9 0 7.9-6.4 14.3-14.3 14.3s-14.3-6.4-14.3-14.3c0-1.5.2-3 .7-4.4h.4c3.2 0 5.8-2.6 5.8-5.8 0-3.2-2.6-5.8-5.8-5.8S27 31.8 27 35z"></path><path d="M27.3 52c0-3.2-2.6-5.8-5.8-5.8s-5.8 2.6-5.8 5.8c0 3.2 2.6 5.8 5.8 5.8h.5c4.7 8.9 13.9 14.6 24.1 14.6 15 0 27.1-12.2 27.1-27.1 0-7.3-2.8-14.1-8-19.2-4.7-4.7-10.9-7.5-17.5-7.9-.6-2.6-2.9-4.5-5.7-4.5-3.2 0-5.8 2.6-5.8 5.8s2.6 5.8 5.8 5.8c2.3 0 4.3-1.4 5.3-3.4 5.8.3 11.1 2.7 15.2 6.8 4.4 4.4 6.9 10.3 6.9 16.5C69.4 58.1 59 68.5 46 68.5c-8.7 0-16.6-4.8-20.6-12.4 1.1-1 1.9-2.5 1.9-4.1z"></path></g><!----></svg>
